# xmcd
#
# Track frame offsets:
#	150
#	16031
#	33775
#	53061
#	70176
#	81803
#	107039
#	127177
#	150215
#	166182
#	188626
#
# Disc length: 2696 seconds
#
# Revision: 0
# Processed by: cddbd v1.5.1PL2 Copyright (c) Steve Scherf et al.
# Submitted via: dBpowerAMP V4.0
#
DISCID=780a860b
DTITLE=Southside Johnny and The Asbury Dukes - Into The Harbour
DYEAR=2005
DGENRE=Blues
TTITLE0=Happy
TTITLE1=Dancing On The Edge Of The World
TTITLE2=You're My Girl (I don't want to discuss it)
TTITLE3=Into The Harbour
TTITLE4=Hang Down Your Head
TTITLE5=The Time Between
TTITLE6=When Rita Leaves
TTITLE7=Don't Call Me Baby
TTITLE8=Tear Stained Letter
TTITLE9=All In My Mind
TTITLE10=Nothing But A Heartache
EXTD=
EXTT0=
EXTT1=
EXTT2=
EXTT3=
EXTT4=
EXTT5=
EXTT6=
EXTT7=
EXTT8=
EXTT9=
EXTT10=
PLAYORDER=
